# xmcd CD database file
#
# Track frame offsets:
#	150
#	47229
#	69435
#	105411
#	153399
#	178891
#	210543
#	229885
#	261541
#	295065
#	321893
#
# Disc length: 4489 seconds
#
# Revision: 0
# Processed by: cddbd v1.5.2PL0 Copyright (c) Steve Scherf et al.
# Submitted via: CDex 1.51
#
DISCID=a211870b
DTITLE=Cathy Favre - Claude Basso - Smile
DYEAR=2008
DGENRE=Jazz
TTITLE0=Autumn leaves
TTITLE1=Jolie Mome
TTITLE2=But not for me
TTITLE3=Corcovado
TTITLE4=Makin' Whoopee
TTITLE5=La Javanaise
TTITLE6=The more I see you
TTITLE7=Que reste-t'il de nos amours
TTITLE8=I can't give you anything but love
TTITLE9=Teach me tonight
TTITLE10=Bye bye blackbird
EXTD=YEAR: 2008
EXTT0=
EXTT1=
EXTT2=
EXTT3=
EXTT4=
EXTT5=
EXTT6=
EXTT7=
EXTT8=
EXTT9=
EXTT10=
PLAYORDER=
